:FULLY-SPECIFIED
:FORCE-ALL-JOINTS-BE-3DOF
:DEGREES
49
root 8.59402 15.8609 -29.4605 6.66793 -10.1737 -3.18489
lfemur -39.6175 8.41061 -17.7854
ltibia 38.5276 0 0
lfoot -4.1176 6.72528 0
ltoes -2.04233 0 0
rfemur 16.7753 4.35236 21.2172
rtibia 19.5407 0 0
rfoot 3.38911 0.24968 0
rtoes -15.1578 0 0
lowerback -6.77526 0.60235 0.111804
upperback -2.24578 0.718657 3.49461
thorax 1.43742 0.363207 3.60142
lowerneck -21.3193 -4.24734 -12.9247
upperneck 16.9761 -4.98031 14.3885
head 9.59351 -1.60713 6.53381
lclavicle 8.51047e-15 7.15625e-15 0
lhumerus -45.1397 -3.16386 90.0628
lradius 21.1155 0 0
lwrist -4.08485 0 0
lhand 4.04619 -16.4142 0
lfingers 7.12502 0 0
lthumb 29.4598 11.2695 0
rclavicle 8.51047e-15 7.15625e-15 0
rhumerus -47.1264 19.779 -94.7034
rradius 49.2455 0 0
rwrist -25.0408 0 0
rhand -30.4695 -28.7895 0
rfingers 7.12502 0 0
rthumb -3.77081 -58.7359 0
50
root 8.62848 15.8884 -29.317 6.59981 -10.3751 -2.84001
lfemur -38.9559 8.43117 -18.3209
ltibia 38.543 0 0
lfoot -4.78807 6.71073 0
ltoes -2.1562 0 0
rfemur 15.3973 3.9247 20.4588
rtibia 22.5596 0 0
rfoot 4.38198 -0.0347496 0
rtoes -13.6532 0 0
lowerback -6.60203 0.591557 -0.122712
upperback -2.34395 0.731809 3.39129
thorax 1.23653 0.371131 3.62193
lowerneck -21.3849 -4.22537 -12.9031
upperneck 17.1016 -4.95696 14.3656
head 9.64399 -1.5945 6.53052
lclavicle 8.62995e-15 9.60517e-15 0
lhumerus -45.0093 -2.83275 89.7181
lradius 20.8347 0 0
lwrist -4.61437 0 0
lhand 3.77114 -16.4945 0
lfingers 7.12502 0 0
lthumb 29.1973 11.2365 0
rclavicle 8.62995e-15 9.60517e-15 0
rhumerus -46.8499 19.3898 -94.6499
rradius 47.9581 0 0
rwrist -24.5238 0 0
rhand -30.2333 -28.2695 0
rfingers 7.12502 0 0
rthumb -3.54272 -58.2198 0
51
root 8.66294 15.9159 -29.1736 6.57523 -10.5811 -2.57208
lfemur -38.3215 8.5211 -18.7781
ltibia 38.4728 0 0
lfoot -5.43091 6.67676 0
ltoes -2.33205 0 0
rfemur 14.0018 3.41986 19.7924
rtibia 25.5149 0 0
rfoot 5.45971 -0.3512 0
rtoes -12.8444 0 0
lowerback -6.47943 0.61182 -0.287991
upperback -2.42485 0.776937 3.28042
thorax 1.08133 0.395556 3.59991
lowerneck -21.4728 -4.21708 -12.8398
upperneck 17.2214 -4.96645 14.3576
head 9.7013 -1.59202 6.52066
lclavicle 8.03226e-15 1.46659e-14 0
lhumerus -44.7922 -2.55664 89.3048
lradius 20.5473 0 0
lwrist -5.19647 0 0
lhand 3.54312 -16.6639 0
lfingers 7.12502 0 0
lthumb 28.9796 11.1051 0
rclavicle 8.03226e-15 1.46659e-14 0
rhumerus -46.3783 18.8603 -94.5601
rradius 46.5151 0 0
rwrist -23.9352 0 0
rhand -29.9898 -27.878 0
rfingers 7.12502 0 0
rthumb -3.3076 -57.832 0
52
root 8.6974 15.9434 -29.0301 6.57306 -10.7862 -2.35262
lfemur -37.692 8.64778 -19.1835
ltibia 38.3276 0 0
lfoot -6.04192 6.6358 0
ltoes -2.54273 0 0
rfemur 12.5991 2.87651 19.1996
rtibia 28.4008 0 0
rfoot 6.55824 -0.724506 0
rtoes -12.4607 0 0
lowerback -6.38817 0.651182 -0.409816
upperback -2.48935 0.841055 3.16736
thorax 0.960304 0.429798 3.55387
lowerneck -21.5746 -4.2181 -12.7501
upperneck 17.3325 -4.99562 14.3525
head 9.76079 -1.59618 6.50409
lclavicle 7.10451e-15 2.07979e-14 0
lhumerus -44.5111 -2.34525 88.8714
lradius 20.2742 0 0
lwrist -5.76744 0 0
lhand 3.35803 -16.8811 0
lfingers 7.12502 0 0
lthumb 28.8028 10.9178 0
rclavicle 7.10451e-15 2.07979e-14 0
rhumerus -45.7967 18.2463 -94.4342
rradius 45.0169 0 0
rwrist -23.3121 0 0
rhand -29.7552 -27.5792 0
rfingers 7.12502 0 0
rthumb -3.08096 -57.5364 0
53
root 8.73186 15.9709 -28.8866 6.57214 -10.9852 -2.15311
lfemur -37.0445 8.77857 -19.5633
ltibia 38.1185 0 0
lfoot -6.61689 6.60032 0
ltoes -2.76108 0 0
rfemur 11.1997 2.33334 18.6618
rtibia 31.2119 0 0
rfoot 7.61354 -1.1795 0
rtoes -12.2312 0 0
lowerback -6.30896 0.697685 -0.513968
upperback -2.5383 0.911179 3.05747
thorax 0.861943 0.467175 3.50231
lowerneck -21.6819 -4.22404 -12.6491
upperneck 17.4323 -5.03128 14.3381
head 9.81778 -1.60349 6.48066
lclavicle 6.23382e-15 2.64605e-14 0
lhumerus -44.1886 -2.20832 88.4667
lradius 20.0364 0 0
lwrist -6.26355 0 0
lhand 3.21175 -17.1049 0
lfingers 7.12502 0 0
lthumb 28.663 10.717 0
rclavicle 6.23382e-15 2.64605e-14 0
rhumerus -45.1903 17.6037 -94.2723
rradius 43.564 0 0
rwrist -22.6916 0 0
rhand -29.5453 -27.3369 0
rfingers 7.12502 0 0
rthumb -2.87831 -57.2969 0
54
root 8.76632 15.9984 -28.7432 6.55134 -11.1724 -1.94508
lfemur -36.3566 8.88085 -19.9439
ltibia 37.8562 0 0
lfoot -7.15163 6.58275 0
ltoes -2.95995 0 0
rfemur 9.81406 1.82903 18.1607
rtibia 33.9426 0 0
rfoot 8.56154 -1.74103 0
rtoes -11.8851 0 0
lowerback -6.2225 0.739373 -0.626229
upperback -2.57259 0.974326 2.95614
thorax 0.77473 0.501005 3.46372
lowerneck -21.7861 -4.23052 -12.5519
upperneck 17.5178 -5.06027 14.3023
head 9.86759 -1.61046 6.45023
lclavicle 5.80729e-15 3.01131e-14 0
lhumerus -43.8473 -2.15557 88.1392
lradius 19.8548 0 0
lwrist -6.62106 0 0
lhand 3.1002 -17.2941 0
lfingers 7.12502 0 0
lthumb 28.5563 10.5452 0
rclavicle 5.80729e-15 3.01131e-14 0
rhumerus -44.6442 16.9883 -94.0747
rradius 42.2567 0 0
rwrist -22.1109 0 0
rhand -29.3763 -27.1151 0
rfingers 7.12502 0 0
rthumb -2.71513 -57.0773 0
55
root 8.80078 16.0259 -28.5997 6.48951 -11.3426 -1.70002
lfemur -35.6057 8.92197 -20.3517
ltibia 37.5516 0 0
lfoot -7.64192 6.59554 0
ltoes -3.11217 0 0
rfemur 8.45266 1.40226 17.6778
rtibia 36.5873 0 0
rfoot 9.33818 -2.43392 0
rtoes -11.1516 0 0
lowerback -6.10952 0.764287 -0.77238
upperback -2.59306 1.01751 2.86873
thorax 0.687148 0.524604 3.45661
lowerneck -21.8789 -4.23317 -12.4737
upperneck 17.5864 -5.06941 14.233
head 9.90556 -1.61359 6.41265
lclavicle 6.21202e-15 3.02153e-14 0
lhumerus -43.5098 -2.19675 87.9375
lradius 19.7504 0 0
lwrist -6.77627 0 0
lhand 3.01927 -17.4074 0
lfingers 7.12502 0 0
lthumb 28.479 10.4447 0
rclavicle 6.21202e-15 3.02153e-14 0
rhumerus -44.2434 16.456 -93.8417
rradius 41.1957 0 0
rwrist -21.6071 0 0
rhand -29.2643 -26.8777 0
rfingers 7.12502 0 0
rthumb -2.60694 -56.8415 0
56
root 8.83343 16.0547 -28.4688 6.37544 -11.5092 -1.40403
lfemur -34.7726 8.90475 -20.7998
ltibia 37.1891 0 0
lfoot -8.08992 6.63939 0
ltoes -3.21125 0 0
rfemur 7.11485 1.05454 17.1963
rtibia 39.1744 0 0
rfoot 10.021 -3.35388 0
rtoes -9.93607 0 0
lowerback -5.9602 0.778711 -0.962283
upperback -2.59587 1.04902 2.79393
thorax 0.596831 0.542367 3.48556
lowerneck -21.9629 -4.23492 -12.417
upperneck 17.634 -5.05904 14.1212
head 9.93055 -1.61412 6.36476
lclavicle 8.14922e-15 2.52015e-14 0
lhumerus -43.181 -2.35775 87.8934
lradius 19.739 0 0
lwrist -6.672 0 0
lhand 3.01835 -17.432 0
lfingers 7.12502 0 0
lthumb 28.4782 10.4207 0
rclavicle 8.14922e-15 2.52015e-14 0
rhumerus -43.9992 15.9954 -93.5478
rradius 40.3943 0 0
rwrist -21.1643 0 0
rhand -29.2232 -26.6262 0
rfingers 7.12502 0 0
rthumb -2.56729 -56.5906 0
